<svg height="448pt" viewBox="-48 0 448 448" width="448pt" xmlns="http://www.w3.org/2000/svg"><path d="m272 8h-200c-17.699219 0-32 14.300781-32 32-17.699219 0-32 14.300781-32 32v336c0 17.699219 14.300781 32 32 32h240c17.699219 0 32-14.300781 32-32 17.699219 0 32-14.300781 32-32v-296zm8 272v128h-240v-176h240zm0 0" fill="#a5d0f2"/><g fill="#4b7493"><path d="m349.699219 74.300781-72-72c-1.5-1.5-3.5-2.300781-5.699219-2.300781h-200c-19.300781 0-35.800781 13.800781-39.300781 32.699219-18.898438 3.5-32.699219 20-32.699219 39.300781v336c0 22.101562 17.898438 40 40 40h240c19.300781 0 35.800781-13.800781 39.300781-32.699219 18.898438-3.5 32.699219-20 32.699219-39.300781v-296c0-2.101562-.800781-4.199219-2.300781-5.699219zm-69.699219 357.699219h-240c-13.300781 0-24-10.699219-24-24v-336c0-13.300781 10.699219-24 24-24h196.699219l67.300781 67.300781v292.699219c0 13.300781-10.699219 24-24 24zm56-56c0 10.101562-6.398438 19.101562-16 22.5v-286.5c0-2.101562-.800781-4.199219-2.300781-5.699219l-72-72c-1.5-1.5-3.5-2.300781-5.699219-2.300781h-190.5c3.398438-9.601562 12.398438-16 22.5-16h196.699219l67.300781 67.300781zm0 0"/><path d="m280 224h-240c-4.398438 0-8 3.601562-8 8v56c0 1.398438.5 2.800781 1.199219 4-.800781 1.199219-1.199219 2.601562-1.199219 4v120c0 4.398438 3.601562 8 8 8h240c4.398438 0 8-3.601562 8-8v-120c0-1.398438-.5-2.800781-1.199219-4 .800781-1.199219 1.199219-2.601562 1.199219-4v-56c0-4.398438-3.601562-8-8-8zm-8 56h-96v-40h96zm-112-40v40h-48v-40zm-112 0h48v40h-48zm0 128h48v40h-48zm64 0h48v40h-48zm64 0h48v40h-48zm96 40h-32v-48c0-4.398438-3.601562-8-8-8h-184v-48h224zm0 0"/></g></svg>