<?xml version="1.0" encoding="iso-8859-1"?>
<!-- Generator: Adobe Illustrator 19.0.0, SVG Export Plug-In . SVG Version: 6.00 Build 0)  -->
<svg version="1.1" id="Capa_1" xmlns="http://www.w3.org/2000/svg" xmlns:xlink="http://www.w3.org/1999/xlink" x="0px" y="0px"
	 viewBox="0 0 512 512" style="enable-background:new 0 0 512 512;" xml:space="preserve">
<path style="fill:#62D16F;" d="M341.5,7.515H119.734c-17.708,0-32.063,14.355-32.063,32.063v432.845
	c0,17.708,14.355,32.063,32.063,32.063h272.532c17.708,0,32.063-14.355,32.063-32.063V90.343L341.5,7.515z"/>
<path style="fill:#40B339;" d="M416.313,480.438H127.75c-8.854,0-16.031-7.178-16.031-16.031V15.53c0-2.475,0.29-4.882,0.821-7.195
	c-14.242,3.267-24.868,16.009-24.868,31.242v432.845c0,17.708,14.355,32.063,32.063,32.063h272.532
	c15.233,0,27.975-10.626,31.242-24.868C421.195,480.149,418.788,480.438,416.313,480.438z"/>
<path style="fill:#F6D45A;" d="M352.188,456.391H159.812c-8.854,0-16.031-7.177-16.031-16.031V183.859
	c0-8.854,7.177-16.031,16.031-16.031h192.376c8.854,0,16.031,7.177,16.031,16.031V440.36
	C368.219,449.214,361.042,456.391,352.188,456.391z"/>
<g>
	<rect x="215.922" y="167.828" style="fill:#F2A83B;" width="80.157" height="96.188"/>
	<rect x="215.922" y="360.204" style="fill:#F2A83B;" width="80.157" height="96.188"/>
	<rect x="296.078" y="264.016" style="fill:#F2A83B;" width="72.141" height="96.188"/>
	<rect x="143.781" y="264.016" style="fill:#F2A83B;" width="72.141" height="96.188"/>
</g>
<rect x="127.75" y="47.593" style="fill:#515790;" width="32.063" height="64.125"/>
<polygon style="fill:#3E477C;" points="143.781,95.687 143.781,47.593 127.75,47.593 127.75,111.718 159.812,111.718 
	159.812,95.687 "/>
<rect x="199.89" y="47.593" style="fill:#515790;" width="32.063" height="64.125"/>
<polygon style="fill:#3E477C;" points="215.922,95.687 215.922,47.593 199.89,47.593 199.89,111.718 231.953,111.718 
	231.953,95.687 "/>
<rect x="272.031" y="47.593" style="fill:#515790;" width="32.063" height="64.125"/>
<polygon style="fill:#3E477C;" points="288.063,95.687 288.063,47.593 272.031,47.593 272.031,111.718 304.094,111.718 
	304.094,95.687 "/>
<path d="M424.329,360.704c4.15,0,7.515-3.364,7.515-7.515V90.342c0-1.993-0.792-3.904-2.201-5.314L346.814,2.2
	c-1.41-1.409-3.32-2.2-5.314-2.2H119.734C97.911,0,80.157,17.755,80.157,39.577v432.845c0,21.823,17.755,39.577,39.577,39.577
	h272.532c21.823,0,39.577-17.755,39.577-39.577v-89.174c0-4.151-3.365-7.515-7.515-7.515s-7.515,3.364-7.515,7.515v89.174
	c0,13.536-11.013,24.548-24.548,24.548H119.734c-13.535,0-24.548-11.012-24.548-24.548V39.577c0-13.536,11.013-24.548,24.548-24.548
	h218.654l78.426,78.425V353.19C416.814,357.341,420.179,360.704,424.329,360.704z"/>
<path d="M159.812,463.906h192.376c12.983,0,23.546-10.563,23.546-23.546V183.859c0-12.983-10.563-23.546-23.546-23.546H159.812
	c-12.983,0-23.546,10.563-23.546,23.546V440.36C136.266,453.343,146.829,463.906,159.812,463.906z M360.704,352.689h-57.112V271.53
	h57.112V352.689z M288.564,448.877h-65.152c0.011-0.166,0.025-0.332,0.025-0.501V175.342h65.127V448.877z M208.407,352.689h-57.112
	V271.53h57.112V352.689z M151.296,440.36v-72.642h57.112v80.658c0,0.169,0.014,0.335,0.025,0.501h-48.62
	C155.116,448.877,151.296,445.056,151.296,440.36z M352.188,448.877h-48.595v-81.159h57.112v72.642
	C360.704,445.056,356.884,448.877,352.188,448.877z M360.704,183.859v72.642h-57.112v-81.159h48.595
	C356.884,175.342,360.704,179.163,360.704,183.859z M159.812,175.342h48.595v81.159h-57.112v-72.642
	C151.296,179.163,155.116,175.342,159.812,175.342z"/>
<path d="M167.327,111.718V47.593c0-4.151-3.365-7.515-7.515-7.515H127.75c-4.15,0-7.515,3.364-7.515,7.515v64.125
	c0,4.151,3.365,7.515,7.515,7.515h32.063C163.962,119.233,167.327,115.869,167.327,111.718z M152.297,104.204h-17.033V55.108h17.033
	V104.204z"/>
<path d="M231.953,119.233c4.15,0,7.515-3.364,7.515-7.515V47.593c0-4.151-3.365-7.515-7.515-7.515H199.89
	c-4.15,0-7.515,3.364-7.515,7.515v64.125c0,4.151,3.365,7.515,7.515,7.515H231.953z M207.405,55.108h17.033v49.096h-17.033V55.108z"
	/>
<path d="M304.094,119.233c4.15,0,7.515-3.364,7.515-7.515V47.593c0-4.151-3.365-7.515-7.515-7.515h-32.063
	c-4.15,0-7.515,3.364-7.515,7.515v64.125c0,4.151,3.365,7.515,7.515,7.515H304.094z M279.546,55.108h17.033v49.096h-17.033V55.108z"
	/>
<g>
</g>
<g>
</g>
<g>
</g>
<g>
</g>
<g>
</g>
<g>
</g>
<g>
</g>
<g>
</g>
<g>
</g>
<g>
</g>
<g>
</g>
<g>
</g>
<g>
</g>
<g>
</g>
<g>
</g>
</svg>
