<?xml version="1.0" encoding="iso-8859-1"?>
<!-- Generator: Adobe Illustrator 22.0.0, SVG Export Plug-In . SVG Version: 6.00 Build 0)  -->
<svg xmlns="http://www.w3.org/2000/svg" xmlns:xlink="http://www.w3.org/1999/xlink" version="1.1" x="0px" y="0px" viewBox="0 0 42 58" style="enable-background:new 0 0 42 58;" xml:space="preserve" width="512" height="512">
<g id="_x31_-Sim_Card">
	<path style="fill:#28384C;" d="M38.996,58H3.004C1.345,58,0,56.655,0,54.996V10L11,0h27.996C40.655,0,42,1.345,42,3.004v51.992   C42,56.655,40.655,58,38.996,58z"/>
	<rect x="6" y="26" style="fill:#EBBA16;" width="30" height="26"/>
	<rect x="6" y="26" style="fill:#ED8A19;" width="6" height="8"/>
	<rect x="12" y="26" style="fill:#DC691D;" width="6" height="8"/>
	<rect x="18" y="26" style="fill:#ED8A19;" width="6" height="8"/>
	<rect x="24" y="26" style="fill:#DC691D;" width="6" height="8"/>
	<rect x="30" y="26" style="fill:#ED8A19;" width="6" height="8"/>
	<rect x="30" y="44" style="fill:#DC691D;" width="6" height="8"/>
	<rect x="24" y="44" style="fill:#ED8A19;" width="6" height="8"/>
	<rect x="18" y="44" style="fill:#DC691D;" width="6" height="8"/>
	<rect x="12" y="44" style="fill:#ED8A19;" width="6" height="8"/>
	<path style="fill:#55687C;" d="M9.5,21H6c-0.552,0-1-0.448-1-1s0.448-1,1-1h3.5c0.827,0,1.5-0.673,1.5-1.5S10.327,16,9.5,16h-1   C6.57,16,5,14.43,5,12.5S6.57,9,8.5,9H12c0.552,0,1,0.448,1,1s-0.448,1-1,1H8.5C7.673,11,7,11.673,7,12.5S7.673,14,8.5,14h1   c1.93,0,3.5,1.57,3.5,3.5S11.43,21,9.5,21z"/>
	<path style="fill:#55687C;" d="M20,21c-0.552,0-1-0.448-1-1V10c0-0.552,0.448-1,1-1s1,0.448,1,1v10C21,20.552,20.552,21,20,21z"/>
	<path style="fill:#55687C;" d="M23,21h-6c-0.552,0-1-0.448-1-1s0.448-1,1-1h6c0.552,0,1,0.448,1,1S23.552,21,23,21z"/>
	<path style="fill:#55687C;" d="M23,11h-6c-0.552,0-1-0.448-1-1s0.448-1,1-1h6c0.552,0,1,0.448,1,1S23.552,11,23,11z"/>
	<path style="fill:#55687C;" d="M36,21c-0.552,0-1-0.448-1-1v-6.234l-2.132,3.73c-0.356,0.623-1.38,0.623-1.736,0L29,13.766V20   c0,0.552-0.448,1-1,1s-1-0.448-1-1V10c0-0.454,0.305-0.85,0.743-0.966c0.437-0.12,0.9,0.077,1.125,0.47L32,14.984l3.132-5.48   c0.225-0.394,0.687-0.589,1.125-0.47C36.695,9.15,37,9.546,37,10v10C37,20.552,36.552,21,36,21z"/>
</g>

</svg>
