<?xml version="1.0" encoding="iso-8859-1"?>
<!-- Generator: Adobe Illustrator 19.0.0, SVG Export Plug-In . SVG Version: 6.00 Build 0)  -->
<svg version="1.1" id="Capa_1" xmlns="http://www.w3.org/2000/svg" xmlns:xlink="http://www.w3.org/1999/xlink" x="0px" y="0px"
	 viewBox="0 0 511.968 511.968" style="enable-background:new 0 0 511.968 511.968;" xml:space="preserve">
<path style="fill:#AC92EC;" d="M467.97,291.983c0-13.203-10.796-23.999-23.998-23.999h-87.995H315.98
	c-13.203,0-23.999,10.796-23.999,23.999v87.994c0,13.203,10.796,23.999,23.999,23.999h39.997h87.995
	c13.202,0,23.998-10.796,23.998-23.999V291.983z M267.983,427.974V259.985c0-4.398,3.601-8,7.999-8h223.986c4.398,0,8,3.602,8,8
	v135.991l-31.998,39.998H275.982C271.584,435.974,267.983,432.373,267.983,427.974z"/>
<g style="opacity:0.3;">
	<path d="M499.968,251.985h-7.999c4.397,0,7.999,3.602,7.999,8v145.99l8-9.999V259.985
		C507.968,255.587,504.367,251.985,499.968,251.985z"/>
</g>
<g style="opacity:0.3;">
	<path style="fill:#FFFFFF;" d="M275.982,427.974V259.985c0-4.398,3.602-8,8-8h-8c-4.398,0-7.999,3.602-7.999,8v167.989
		c0,4.398,3.601,8,7.999,8h8C279.584,435.974,275.982,432.373,275.982,427.974z"/>
</g>
<path style="fill:#FFCE54;" d="M443.972,267.984h-87.995H315.98c-13.203,0-23.999,10.796-23.999,23.999v87.994
	c0,13.203,10.796,23.999,23.999,23.999h39.997h87.995c13.202,0,23.998-10.796,23.998-23.999v-87.994
	C467.97,278.78,457.174,267.984,443.972,267.984z"/>
<g style="opacity:0.5;">
	<path style="fill:#FFFFFF;" d="M299.981,379.977v-87.994c0-13.203,10.796-23.999,23.998-23.999h-7.999
		c-13.203,0-23.999,10.796-23.999,23.999v87.994c0,13.203,10.796,23.999,23.999,23.999h7.999
		C310.777,403.976,299.981,393.18,299.981,379.977z"/>
</g>
<g style="opacity:0.2;">
	<path d="M459.971,291.983v87.994c0,13.203-10.796,23.999-23.999,23.999h8c13.202,0,23.998-10.796,23.998-23.999v-87.994
		c0-13.203-10.796-23.999-23.998-23.999h-8C449.175,267.984,459.971,278.78,459.971,291.983z"/>
</g>
<path style="fill:#FFCE54;" d="M419.973,75.996h-87.994h-39.998c-13.202,0-23.998,10.8-23.998,23.999v87.994
	c0,13.199,10.796,23.999,23.998,23.999h39.998h87.994l23.999-23.999V99.995C443.972,86.797,433.175,75.996,419.973,75.996z"/>
<g style="opacity:0.2;">
	<path d="M419.973,75.996h-7.999c13.202,0,23.998,10.8,23.998,23.999v95.994l8-8V99.995
		C443.972,86.797,433.175,75.996,419.973,75.996z"/>
</g>
<g style="opacity:0.5;">
	<path style="fill:#FFFFFF;" d="M275.982,187.989V99.995c0-13.199,10.797-23.999,23.999-23.999h-8
		c-13.202,0-23.998,10.8-23.998,23.999v87.994c0,13.199,10.796,23.999,23.998,23.999h8
		C286.779,211.988,275.982,201.188,275.982,187.989z"/>
</g>
<path style="fill:#FFCE54;" d="M163.989,243.986v127.992c0,13.202-2.796,23.998-15.999,23.998H51.996
	c-13.202,0-23.998-10.796-23.998-23.998V243.986c0-13.199,10.796-23.999,23.998-23.999h87.995
	C153.193,219.987,163.989,230.788,163.989,243.986z"/>
<g style="opacity:0.5;">
	<path style="fill:#FFFFFF;" d="M35.997,371.978V243.986c0-13.199,10.797-23.999,23.999-23.999h-8
		c-13.202,0-23.998,10.8-23.998,23.999v127.992c0,13.202,10.796,23.998,23.998,23.998h8
		C46.794,395.976,35.997,385.18,35.997,371.978z"/>
</g>
<g style="opacity:0.2;">
	<path d="M155.99,371.978V243.986c0-13.199-10.796-23.999-23.999-23.999h8c13.202,0,23.998,10.8,23.998,23.999v127.992
		c0,13.202-10.796,23.998-23.998,23.998h-8C145.194,395.976,155.99,385.18,155.99,371.978z"/>
</g>
<path style="fill:#5D9CEC;" d="M27.998,243.986v127.992c0,13.202,10.796,23.998,23.998,23.998h95.994
	c13.203,0,15.999-10.796,15.999-23.998V243.986c0-13.199-10.796-23.999-23.998-23.999H51.996
	C38.794,219.987,27.998,230.788,27.998,243.986z M219.986,147.992v279.982c0,4.398-3.602,8-8,8H11.999c-4.398,0-8-3.602-8-8V83.996
	c0-4.398,3.602-8,8-8h175.989l31.998,31.998v23.999V147.992z"/>
<g style="opacity:0.3;">
	<path d="M211.986,99.995v31.998v15.999v279.982c0,4.398-3.601,8-7.999,8h7.999c4.398,0,8-3.602,8-8V147.992v-15.999v-23.999
		L211.986,99.995z"/>
</g>
<g style="opacity:0.3;">
	<path style="fill:#FFFFFF;" d="M11.999,427.974V83.996c0-4.398,3.602-8,7.999-8h-7.999c-4.398,0-8,3.602-8,8v343.978
		c0,4.398,3.602,8,8,8h7.999C15.6,435.974,11.999,432.373,11.999,427.974z"/>
</g>
<g>
	<path style="fill:#3A3847;" d="M211.986,439.973H11.999c-2.211,0-4-1.789-4-3.999c0-2.211,1.789-4,4-4h199.987c2.211,0,4,1.789,4,4
		C215.986,438.184,214.197,439.973,211.986,439.973z"/>
	<path style="fill:#3A3847;" d="M3.999,431.974c-2.21,0-3.999-1.789-3.999-4V83.996c0-2.211,1.789-4,3.999-4c2.211,0,4,1.789,4,4
		v343.978C7.999,430.185,6.21,431.974,3.999,431.974z"/>
	<path style="fill:#3A3847;" d="M219.986,431.974c-2.211,0-4-1.789-4-4v-319.98c0-2.21,1.789-4,4-4s4,1.789,4,4v319.98
		C223.986,430.185,222.197,431.974,219.986,431.974z"/>
	<path style="fill:#3A3847;" d="M187.988,79.996H11.999c-2.211,0-4-1.789-4-4c0-2.21,1.789-4,4-4h175.989c2.211,0,4,1.789,4,4
		S190.199,79.996,187.988,79.996z"/>
	<path style="fill:#3A3847;" d="M219.986,111.994c-1.023,0-2.047-0.391-2.828-1.172L185.16,78.824c-1.563-1.563-1.563-4.094,0-5.656
		c1.563-1.563,4.094-1.563,5.656,0l31.998,31.998c1.563,1.562,1.563,4.093,0,5.656C222.033,111.604,221.009,111.994,219.986,111.994
		z"/>
	<path style="fill:#3A3847;" d="M211.986,439.973c-2.21,0-3.999-1.789-3.999-3.999c0-2.211,1.789-4,3.999-4c2.203,0,4-1.797,4-4
		c0-2.21,1.789-3.999,4-3.999s4,1.789,4,3.999C223.986,434.591,218.603,439.973,211.986,439.973z"/>
	<path style="fill:#3A3847;" d="M11.999,439.973C5.382,439.973,0,434.591,0,427.974c0-2.21,1.789-3.999,3.999-3.999
		c2.211,0,4,1.789,4,3.999c0,2.203,1.797,4,4,4c2.211,0,4,1.789,4,4C15.999,438.184,14.21,439.973,11.999,439.973z"/>
	<path style="fill:#3A3847;" d="M3.999,87.996c-2.21,0-3.999-1.789-3.999-4c0-6.617,5.382-12,11.999-12c2.211,0,4,1.789,4,4
		s-1.789,4-4,4c-2.203,0-4,1.793-4,4C7.999,86.207,6.21,87.996,3.999,87.996z"/>
	<path style="fill:#3A3847;" d="M147.99,399.976H51.996c-15.437,0-27.998-12.562-27.998-27.998V243.986
		c0-15.437,12.562-27.999,27.998-27.999h87.995c15.437,0,27.998,12.562,27.998,27.999v127.992
		C167.989,378.899,167.989,399.976,147.99,399.976z M51.996,223.987c-11.03,0-19.998,8.972-19.998,19.999v127.992
		c0,11.03,8.968,19.999,19.998,19.999h95.994c7.203,0,12-3.406,12-19.999V243.986c0-11.027-8.969-19.999-19.999-19.999
		L51.996,223.987L51.996,223.987z"/>
	<path style="fill:#3A3847;" d="M75.995,279.983c-2.211,0-4-1.789-4-3.999v-39.998c0-2.21,1.789-4,4-4s4,1.789,4,4v39.998
		C79.995,278.194,78.206,279.983,75.995,279.983z"/>
	<path style="fill:#3A3847;" d="M115.992,279.983c-2.21,0-3.999-1.789-3.999-3.999v-39.998c0-2.21,1.789-4,3.999-4
		c2.211,0,4,1.789,4,4v39.998C119.992,278.194,118.203,279.983,115.992,279.983z"/>
	<path style="fill:#3A3847;" d="M75.995,383.977c-2.211,0-4-1.789-4-4v-31.998c0-2.211,1.789-4,4-4s4,1.789,4,4v31.998
		C79.995,382.188,78.206,383.977,75.995,383.977z"/>
	<path style="fill:#3A3847;" d="M115.992,383.977c-2.21,0-3.999-1.789-3.999-4v-31.998c0-2.211,1.789-4,3.999-4c2.211,0,4,1.789,4,4
		v31.998C119.992,382.188,118.203,383.977,115.992,383.977z"/>
	<path style="fill:#3A3847;" d="M115.992,343.979H75.995c-6.617,0-11.999-5.382-11.999-11.999c0-2.21,1.789-3.999,3.999-3.999
		c2.211,0,4,1.789,4,3.999c0,2.203,1.797,4,4,4h39.997c2.203,0,4-1.797,4-4v-7.999c0-2.211,1.789-4,4-4s4,1.789,4,4v7.999
		C127.992,338.597,122.609,343.979,115.992,343.979z"/>
	<path style="fill:#3A3847;" d="M123.992,295.983c-2.211,0-4-1.789-4-4v-8c0-2.203-1.797-4-4-4H75.995c-2.211,0-4-1.789-4-3.999
		c0-2.211,1.789-4,4-4h39.997c6.617,0,12,5.383,12,11.999v8C127.992,294.194,126.203,295.983,123.992,295.983z"/>
	<path style="fill:#3A3847;" d="M139.991,295.983h-15.999c-2.211,0-4-1.789-4-4s1.789-4,4-4h15.999c2.211,0,4,1.789,4,4
		S142.202,295.983,139.991,295.983z"/>
	<path style="fill:#3A3847;" d="M139.991,327.981h-15.999c-2.211,0-4-1.789-4-4s1.789-4,4-4h15.999c2.211,0,4,1.789,4,4
		S142.202,327.981,139.991,327.981z"/>
	<path style="fill:#3A3847;" d="M139.991,295.983c-1.023,0-2.047-0.391-2.828-1.172c-1.563-1.563-1.563-4.094,0-5.656l8-8
		c1.562-1.563,4.093-1.563,5.655,0s1.563,4.094,0,5.656l-7.999,8C142.038,295.592,141.014,295.983,139.991,295.983z"/>
	<path style="fill:#3A3847;" d="M147.99,335.98c-1.023,0-2.046-0.391-2.827-1.172l-8-7.999c-1.563-1.563-1.563-4.094,0-5.656
		s4.094-1.563,5.656,0l7.999,8c1.563,1.562,1.563,4.093,0,5.655C150.037,335.589,149.013,335.98,147.99,335.98z"/>
	<path style="fill:#3A3847;" d="M67.995,295.983H51.996c-2.21,0-3.999-1.789-3.999-4s1.789-4,3.999-4h15.999c2.211,0,4,1.789,4,4
		S70.206,295.983,67.995,295.983z"/>
	<path style="fill:#3A3847;" d="M67.995,327.981H51.996c-2.21,0-3.999-1.789-3.999-4s1.789-4,3.999-4h15.999c2.211,0,4,1.789,4,4
		S70.206,327.981,67.995,327.981z"/>
	<path style="fill:#3A3847;" d="M51.996,295.983c-1.023,0-2.046-0.391-2.827-1.172l-8-8c-1.563-1.563-1.563-4.094,0-5.656
		s4.094-1.563,5.656,0l7.999,8c1.563,1.563,1.563,4.094,0,5.656C54.043,295.592,53.019,295.983,51.996,295.983z"/>
	<path style="fill:#3A3847;" d="M43.997,335.98c-1.023,0-2.047-0.391-2.828-1.172c-1.563-1.563-1.563-4.094,0-5.655l8-8
		c1.562-1.563,4.093-1.563,5.655,0s1.563,4.094,0,5.656l-7.999,7.999C46.044,335.589,45.02,335.98,43.997,335.98z"/>
	<path style="fill:#3A3847;" d="M67.995,335.98c-2.21,0-3.999-1.789-3.999-4v-7.999c0-2.211,1.789-4,3.999-4c2.211,0,4,1.789,4,4
		v7.999C71.995,334.191,70.206,335.98,67.995,335.98z"/>
	<path style="fill:#3A3847;" d="M443.972,407.975H315.98c-15.437,0-27.998-12.562-27.998-27.998v-87.994
		c0-15.437,12.562-27.998,27.998-27.998h127.992c15.437,0,27.998,12.562,27.998,27.998v87.994
		C471.97,395.414,459.409,407.975,443.972,407.975z M315.98,271.984c-11.031,0-19.999,8.968-19.999,19.999v87.994
		c0,11.031,8.968,19.999,19.999,19.999h127.992c11.03,0,19.998-8.968,19.998-19.999v-87.994c0-11.031-8.968-19.999-19.998-19.999
		H315.98z"/>
	<path style="fill:#3A3847;" d="M451.971,319.981h-39.997c-2.211,0-4-1.789-4-4s1.789-4,4-4h39.997c2.211,0,4,1.789,4,4
		S454.182,319.981,451.971,319.981z"/>
	<path style="fill:#3A3847;" d="M451.971,359.979h-39.997c-2.211,0-4-1.789-4-4s1.789-4,4-4h39.997c2.211,0,4,1.789,4,4
		S454.182,359.979,451.971,359.979z"/>
	<path style="fill:#3A3847;" d="M339.978,319.981H307.98c-2.211,0-4-1.789-4-4s1.789-4,4-4h31.998c2.211,0,4,1.789,4,4
		S342.189,319.981,339.978,319.981z"/>
	<path style="fill:#3A3847;" d="M339.978,359.979H307.98c-2.211,0-4-1.789-4-4s1.789-4,4-4h31.998c2.211,0,4,1.789,4,4
		S342.189,359.979,339.978,359.979z"/>
	<path style="fill:#3A3847;" d="M363.977,367.978h-8c-6.616,0-11.999-5.383-11.999-11.999v-39.998
		c0-6.616,5.383-11.999,11.999-11.999c2.211,0,4,1.789,4,4c0,2.21-1.789,3.999-4,3.999c-2.202,0-3.999,1.797-3.999,4v39.998
		c0,2.203,1.797,4,3.999,4h8c2.21,0,3.999,1.789,3.999,3.999C367.976,366.189,366.187,367.978,363.977,367.978z"/>
	<path style="fill:#3A3847;" d="M403.974,367.978h-7.999c-2.211,0-4-1.789-4-4c0-2.21,1.789-3.999,4-3.999h7.999
		c2.203,0,4-1.797,4-4v-39.998c0-2.211,1.789-4,4-4s4,1.789,4,4v39.998C415.974,362.595,410.591,367.978,403.974,367.978z"/>
	<path style="fill:#3A3847;" d="M395.975,383.977c-2.211,0-4-1.789-4-4v-15.999c0-2.21,1.789-3.999,4-3.999
		c2.21,0,3.999,1.789,3.999,3.999v15.999C399.974,382.188,398.185,383.977,395.975,383.977z"/>
	<path style="fill:#3A3847;" d="M363.977,383.977c-2.211,0-4-1.789-4-4v-15.999c0-2.21,1.789-3.999,4-3.999
		c2.21,0,3.999,1.789,3.999,3.999v15.999C367.976,382.188,366.187,383.977,363.977,383.977z"/>
	<path style="fill:#3A3847;" d="M403.974,391.977c-1.023,0-2.047-0.391-2.828-1.172l-7.999-8c-1.563-1.563-1.563-4.094,0-5.656
		s4.094-1.563,5.655,0l8,8c1.563,1.563,1.563,4.094,0,5.656C406.021,391.587,404.998,391.977,403.974,391.977z"/>
	<path style="fill:#3A3847;" d="M355.977,391.977c-1.023,0-2.046-0.391-2.827-1.172c-1.563-1.563-1.563-4.094,0-5.656l7.999-8
		c1.563-1.563,4.094-1.563,5.655,0c1.563,1.563,1.563,4.094,0,5.656l-7.999,8C358.024,391.587,357.001,391.977,355.977,391.977z"/>
	<path style="fill:#3A3847;" d="M395.975,311.981c-2.211,0-4-1.789-4-3.999v-15.999c0-2.211,1.789-4,4-4c2.21,0,3.999,1.789,3.999,4
		v15.999C399.974,310.192,398.185,311.981,395.975,311.981z"/>
	<path style="fill:#3A3847;" d="M363.977,311.981c-2.211,0-4-1.789-4-3.999v-15.999c0-2.211,1.789-4,4-4c2.21,0,3.999,1.789,3.999,4
		v15.999C367.976,310.192,366.187,311.981,363.977,311.981z"/>
	<path style="fill:#3A3847;" d="M395.975,295.983c-1.023,0-2.047-0.391-2.828-1.172c-1.563-1.563-1.563-4.094,0-5.656l7.999-8
		c1.563-1.563,4.094-1.563,5.656,0s1.563,4.094,0,5.656l-8,8C398.021,295.592,396.999,295.983,395.975,295.983z"/>
	<path style="fill:#3A3847;" d="M363.977,295.983c-1.023,0-2.047-0.391-2.828-1.172l-7.999-8c-1.563-1.563-1.563-4.094,0-5.656
		c1.562-1.563,4.093-1.563,5.655,0l7.999,8c1.563,1.563,1.563,4.094,0,5.656C366.023,295.592,365.001,295.983,363.977,295.983z"/>
	<path style="fill:#3A3847;" d="M363.977,311.981h-8c-2.21,0-3.999-1.789-3.999-3.999c0-2.211,1.789-4,3.999-4h8
		c2.21,0,3.999,1.789,3.999,4C367.976,310.192,366.187,311.981,363.977,311.981z"/>
	<path style="fill:#3A3847;" d="M419.973,215.988H291.981c-15.437,0-27.998-12.562-27.998-27.999V99.995
		c0-15.437,12.562-27.999,27.998-27.999h127.992c15.437,0,27.999,12.562,27.999,27.999v87.994c0,1.063-0.422,2.078-1.172,2.828
		l-23.999,23.999C422.051,215.566,421.036,215.988,419.973,215.988z M291.981,79.996c-11.03,0-19.999,8.972-19.999,19.999v87.994
		c0,11.027,8.969,19.999,19.999,19.999h126.336l21.655-21.655V99.995c0-11.027-8.969-19.999-19.999-19.999H291.981z"/>
	<path style="fill:#3A3847;" d="M427.973,127.993h-39.998c-2.21,0-3.999-1.789-3.999-4c0-2.21,1.789-4,3.999-4h39.998
		c2.21,0,3.999,1.789,3.999,4C431.972,126.204,430.183,127.993,427.973,127.993z"/>
	<path style="fill:#3A3847;" d="M427.973,167.991h-39.998c-2.21,0-3.999-1.789-3.999-4s1.789-4,3.999-4h39.998
		c2.21,0,3.999,1.789,3.999,4S430.183,167.991,427.973,167.991z"/>
	<path style="fill:#3A3847;" d="M315.98,127.993h-31.998c-2.211,0-4-1.789-4-4c0-2.21,1.789-4,4-4h31.998c2.211,0,4,1.789,4,4
		C319.98,126.204,318.191,127.993,315.98,127.993z"/>
	<path style="fill:#3A3847;" d="M315.98,167.991h-31.998c-2.211,0-4-1.789-4-4s1.789-4,4-4h31.998c2.211,0,4,1.789,4,4
		S318.191,167.991,315.98,167.991z"/>
	<path style="fill:#3A3847;" d="M339.978,175.99h-7.999c-6.617,0-11.999-5.383-11.999-11.999v-39.998
		c0-6.616,5.382-11.999,11.999-11.999c2.21,0,3.999,1.789,3.999,4c0,2.21-1.789,4-3.999,4c-2.203,0-4,1.793-4,4v39.998
		c0,2.207,1.797,4,4,4h7.999c2.211,0,4,1.789,4,4C343.978,174.201,342.189,175.99,339.978,175.99z"/>
	<path style="fill:#3A3847;" d="M379.976,175.99h-8c-2.211,0-4-1.789-4-4c0-2.21,1.789-4,4-4h8c2.203,0,4-1.793,4-4v-39.998
		c0-2.21,1.789-4,3.999-4c2.211,0,4,1.789,4,4v39.998C391.975,170.608,386.592,175.99,379.976,175.99z"/>
	<path style="fill:#3A3847;" d="M371.976,191.989c-2.211,0-4-1.789-4-4V171.99c0-2.21,1.789-4,4-4s4,1.789,4,4v15.999
		C375.976,190.2,374.187,191.989,371.976,191.989z"/>
	<path style="fill:#3A3847;" d="M339.978,191.989c-2.211,0-4-1.789-4-4V171.99c0-2.21,1.789-4,4-4s4,1.789,4,4v15.999
		C343.978,190.2,342.189,191.989,339.978,191.989z"/>
	<path style="fill:#3A3847;" d="M379.976,199.989c-1.023,0-2.047-0.391-2.828-1.172l-8-8c-1.563-1.563-1.563-4.094,0-5.656
		c1.563-1.563,4.094-1.563,5.656,0l8,8c1.563,1.563,1.563,4.094,0,5.656C382.023,199.598,381,199.989,379.976,199.989z"/>
	<path style="fill:#3A3847;" d="M331.979,199.989c-1.023,0-2.047-0.391-2.828-1.172c-1.563-1.562-1.563-4.093,0-5.656l7.999-8
		c1.563-1.563,4.094-1.563,5.656,0c1.563,1.562,1.563,4.093,0,5.656l-8,8C334.025,199.598,333.003,199.989,331.979,199.989z"/>
	<path style="fill:#3A3847;" d="M371.976,119.994c-2.211,0-4-1.789-4-4V99.995c0-2.211,1.789-4,4-4s4,1.789,4,4v15.999
		C375.976,118.205,374.187,119.994,371.976,119.994z"/>
	<path style="fill:#3A3847;" d="M339.978,119.994c-2.211,0-4-1.789-4-4V99.995c0-2.211,1.789-4,4-4s4,1.789,4,4v15.999
		C343.978,118.205,342.189,119.994,339.978,119.994z"/>
	<path style="fill:#3A3847;" d="M371.976,103.995c-1.023,0-2.047-0.391-2.828-1.172c-1.563-1.562-1.563-4.093,0-5.656l8-8
		c1.563-1.563,4.094-1.563,5.656,0c1.563,1.562,1.563,4.093,0,5.656l-8,8C374.023,103.604,373,103.995,371.976,103.995z"/>
	<path style="fill:#3A3847;" d="M339.978,103.995c-1.023,0-2.047-0.391-2.828-1.172l-7.999-8c-1.563-1.563-1.563-4.094,0-5.656
		c1.563-1.563,4.094-1.563,5.655,0l8,8c1.563,1.563,1.563,4.094,0,5.656C342.025,103.604,341.002,103.995,339.978,103.995z"/>
	<path style="fill:#3A3847;" d="M339.978,119.994h-7.999c-2.211,0-4-1.789-4-4s1.789-4,4-4h7.999c2.211,0,4,1.789,4,4
		S342.189,119.994,339.978,119.994z"/>
	<path style="fill:#3A3847;" d="M35.997,190.63c-2.21,0-3.999-1.789-3.999-4v-78.636c0-2.21,1.789-4,3.999-4c2.211,0,4,1.789,4,4
		v78.636C39.997,188.841,38.208,190.63,35.997,190.63z"/>
	<path style="fill:#3A3847;" d="M59.996,190.63c-2.211,0-4-1.789-4-4v-78.636c0-2.21,1.789-4,4-4s4,1.789,4,4v78.636
		C63.996,188.841,62.207,190.63,59.996,190.63z"/>
	<path style="fill:#3A3847;" d="M83.994,190.63c-2.21,0-3.999-1.789-3.999-4v-38.638c0-2.211,1.789-4,3.999-4c2.211,0,4,1.789,4,4
		v38.638C87.994,188.841,86.205,190.63,83.994,190.63z"/>
	<path style="fill:#3A3847;" d="M499.968,255.985H275.982c-2.211,0-4-1.789-4-4c0-2.21,1.789-4,4-4h223.986c2.211,0,4,1.789,4,4
		C503.968,254.196,502.179,255.985,499.968,255.985z"/>
	<path style="fill:#3A3847;" d="M267.983,431.974c-2.211,0-4-1.789-4-4V259.985c0-2.211,1.789-4,4-4c2.21,0,3.999,1.789,3.999,4
		v167.989C271.982,430.185,270.193,431.974,267.983,431.974z"/>
	<path style="fill:#3A3847;" d="M475.97,439.973H275.982c-2.211,0-4-1.789-4-3.999c0-2.211,1.789-4,4-4H475.97c2.211,0,4,1.789,4,4
		C479.97,438.184,478.181,439.973,475.97,439.973z"/>
	<path style="fill:#3A3847;" d="M507.968,399.976c-2.211,0-4-1.789-4-4V259.985c0-2.211,1.789-4,4-4s4,1.789,4,4v135.991
		C511.968,398.187,510.179,399.976,507.968,399.976z"/>
	<path style="fill:#3A3847;" d="M475.97,439.973c-0.883,0-1.758-0.281-2.5-0.875c-1.727-1.382-2-3.897-0.625-5.624l31.998-39.997
		c1.391-1.719,3.898-1.992,5.625-0.625c1.727,1.382,2,3.897,0.625,5.624l-31.998,39.997
		C478.306,439.458,477.142,439.973,475.97,439.973z"/>
	<path style="fill:#3A3847;" d="M267.983,263.985c-2.211,0-4-1.789-4-4c0-6.617,5.383-11.999,11.999-11.999c2.211,0,4,1.789,4,4
		s-1.789,4-4,4c-2.203,0-4,1.792-4,4C271.982,262.196,270.193,263.985,267.983,263.985z"/>
	<path style="fill:#3A3847;" d="M507.968,263.985c-2.211,0-4-1.789-4-4c0-2.207-1.797-4-4-4c-2.211,0-4-1.789-4-4
		c0-2.21,1.789-4,4-4c6.617,0,12,5.382,12,11.999C511.968,262.196,510.179,263.985,507.968,263.985z"/>
	<path style="fill:#3A3847;" d="M275.982,439.973c-6.616,0-11.999-5.382-11.999-11.999c0-2.21,1.789-3.999,4-3.999
		c2.21,0,3.999,1.789,3.999,3.999c0,2.203,1.797,4,4,4c2.211,0,4,1.789,4,4C279.982,438.184,278.193,439.973,275.982,439.973z"/>
	<path style="fill:#3A3847;" d="M219.986,135.993h-4c-2.211,0-4-1.789-4-4s1.789-4,4-4h4c2.211,0,4,1.789,4,4
		S222.197,135.993,219.986,135.993z"/>
	<path style="fill:#3A3847;" d="M219.986,151.992h-4c-2.211,0-4-1.789-4-4s1.789-4,4-4h4c2.211,0,4,1.789,4,4
		S222.197,151.992,219.986,151.992z"/>
</g>
<g>
</g>
<g>
</g>
<g>
</g>
<g>
</g>
<g>
</g>
<g>
</g>
<g>
</g>
<g>
</g>
<g>
</g>
<g>
</g>
<g>
</g>
<g>
</g>
<g>
</g>
<g>
</g>
<g>
</g>
</svg>
