<?xml version="1.0" encoding="iso-8859-1"?>
<!-- Generator: Adobe Illustrator 19.0.0, SVG Export Plug-In . SVG Version: 6.00 Build 0)  -->
<svg version="1.1" id="Capa_1" xmlns="http://www.w3.org/2000/svg" xmlns:xlink="http://www.w3.org/1999/xlink" x="0px" y="0px"
	 viewBox="0 0 409.6 409.6" style="enable-background:new 0 0 409.6 409.6;" xml:space="preserve">
<path style="fill:#F6C358;" d="M76.099,63.844v327.508c0,10.078,8.17,18.248,18.248,18.248h220.906
	c10.078,0,18.248-8.17,18.248-18.248V18.248C333.501,8.17,325.331,0,315.253,0H134.089L76.099,63.844z"/>
<path style="fill:#DC8744;" d="M293.993,384.064H139.653c-7.305,0-13.227-5.922-13.227-13.227V200.154
	c0-7.305,5.922-13.227,13.227-13.227h154.341c7.305,0,13.227,5.922,13.227,13.227v170.684
	C307.22,378.142,301.298,384.064,293.993,384.064z"/>
<g>
	<rect x="232.294" y="182.902" style="fill:#F6C358;" width="16.343" height="205.722"/>
	<rect x="240.481" y="220.979" style="fill:#F6C358;" width="75.249" height="16.343"/>
	<rect x="240.481" y="272.742" style="fill:#F6C358;" width="75.249" height="16.343"/>
	<rect x="247.296" y="328.55" style="fill:#F6C358;" width="75.244" height="16.343"/>
	<polygon style="fill:#F6C358;" points="188.733,344.906 114.169,344.906 114.169,328.563 172.39,328.563 172.39,147.091 
		188.733,147.091 	"/>
	<rect x="108.186" y="272.742" style="fill:#F6C358;" width="75.249" height="16.343"/>
	<rect x="111.785" y="220.979" style="fill:#F6C358;" width="75.249" height="16.343"/>
</g>
<g>
</g>
<g>
</g>
<g>
</g>
<g>
</g>
<g>
</g>
<g>
</g>
<g>
</g>
<g>
</g>
<g>
</g>
<g>
</g>
<g>
</g>
<g>
</g>
<g>
</g>
<g>
</g>
<g>
</g>
</svg>
