<svg height="480pt" viewBox="0 0 480 480" width="480pt" xmlns="http://www.w3.org/2000/svg"><path d="m416 472h-224c-13.253906 0-24-10.746094-24-24v-320c0-13.253906 10.746094-24 24-24h176l72 72v272c0 13.253906-10.746094 24-24 24zm0 0" fill="#0093ba"/><path d="m208 272h192v160h-192zm0 0" fill="#ffc119"/><path d="m168 376h40v16h-40zm0 0" fill="#047fa7"/><path d="m312 104h16v168h-16zm0 0" fill="#047fa7"/><path d="m208 272v120h80c22.082031-.027344 39.972656-17.917969 40-40v-80zm0 0" fill="#faac2b"/><path d="m288 376h-224c-13.253906 0-24-10.746094-24-24v-320c0-13.253906 10.746094-24 24-24h176l72 72v272c0 13.253906-10.746094 24-24 24zm0 0" fill="#0093ba"/><path d="m80 176h192v160h-192zm0 0" fill="#ffc119"/><path d="m64 384h224c17.671875 0 32-14.328125 32-32v-272c0-2.121094-.84375-4.15625-2.34375-5.65625l-72-72c-1.5-1.5-3.535156-2.34375-5.65625-2.34375h-176c-17.671875 0-32 14.328125-32 32v320c0 17.671875 14.328125 32 32 32zm-16-352c0-8.835938 7.164062-16 16-16h172.6875l67.3125 67.3125v268.6875c0 8.835938-7.164062 16-16 16h-224c-8.835938 0-16-7.164062-16-16zm0 0"/><path d="m80 344h192c4.417969 0 8-3.582031 8-8v-160c0-4.417969-3.582031-8-8-8h-192c-4.417969 0-8 3.582031-8 8v160c0 4.417969 3.582031 8 8 8zm8-64h32v48h-32zm96-56v-40h32v80h-128v-32h88c4.417969 0 8-3.582031 8-8zm-16 56v48h-32v-48zm16 0h32v48h-32zm80 48h-32v-144h32zm-96-144v32h-80v-32zm0 0"/><path d="m72 40h16v16h-16zm0 0"/><path d="m104 40h56v16h-56zm0 0"/><path d="m72 72h112v16h-112zm0 0"/><path d="m432 179.3125v268.6875c0 8.835938-7.164062 16-16 16h-224c-8.835938 0-16-7.164062-16-16v-48h-16v48c0 17.671875 14.328125 32 32 32h224c17.671875 0 32-14.328125 32-32v-272c0-2.121094-.84375-4.15625-2.34375-5.65625l-72-72c-1.5-1.5-3.535156-2.34375-5.65625-2.34375h-32v16h28.6875zm0 0"/><path d="m352 424h-40v-24h-16v24h-32v-24h-16v24h-32v-24h-16v32c0 4.417969 3.582031 8 8 8h192c4.417969 0 8-3.582031 8-8v-160c0-4.417969-3.582031-8-8-8h-64v16h16v80h-16v16h16zm40-144v144h-24v-144zm0 0"/><path d="m464 264h16v152h-16zm0 0"/><path d="m464 432h16v16h-16zm0 0"/><path d="m0 40h16v232h-16zm0 0"/></svg>