<svg height="512" viewBox="0 0 512 512" width="512" xmlns="http://www.w3.org/2000/svg"><g><g><path d="m416 16v480h-320v-352h32v-32h-32v-48l48-48z" fill="#2d2d30"/><g fill="#ffda44"><path d="m232 48h32v80h-32z"/><path d="m176 48h32v80h-32z"/><path d="m288 48h32v80h-32z"/><path d="m344 48h32v80h-32z"/><path d="m128 296h256v152h-256z"/></g><path d="m336 320h24v32h-24z" fill="#ff9811"/><path d="m152 392h24v32h-24z" fill="#ff9811"/><path d="m152 344h24v24h-24z" fill="#ff9811"/><path d="m336 376h24v24h-24z" fill="#ff9811"/></g><g><path d="m416 8h-272a8 8 0 0 0 -5.657 2.343l-48 48a8 8 0 0 0 -2.343 5.657v48a8 8 0 0 0 8 8h24v16h-24a8 8 0 0 0 -8 8v352a8 8 0 0 0 8 8h320a8 8 0 0 0 8-8v-480a8 8 0 0 0 -8-8zm-8 480h-304v-336h24a8 8 0 0 0 8-8v-32a8 8 0 0 0 -8-8h-24v-36.687l43.313-43.313h260.687z"/><path d="m232 136h32a8 8 0 0 0 8-8v-80a8 8 0 0 0 -8-8h-32a8 8 0 0 0 -8 8v80a8 8 0 0 0 8 8zm8-80h16v64h-16z"/><path d="m176 136h32a8 8 0 0 0 8-8v-80a8 8 0 0 0 -8-8h-32a8 8 0 0 0 -8 8v80a8 8 0 0 0 8 8zm8-80h16v64h-16z"/><path d="m288 136h32a8 8 0 0 0 8-8v-80a8 8 0 0 0 -8-8h-32a8 8 0 0 0 -8 8v80a8 8 0 0 0 8 8zm8-80h16v64h-16z"/><path d="m344 136h32a8 8 0 0 0 8-8v-80a8 8 0 0 0 -8-8h-32a8 8 0 0 0 -8 8v80a8 8 0 0 0 8 8zm8-80h16v64h-16z"/><path d="m128 288a8 8 0 0 0 -8 8v152a8 8 0 0 0 8 8h256a8 8 0 0 0 8-8v-152a8 8 0 0 0 -8-8zm8 152v-112h144a8 8 0 0 0 0-16h-144v-8h240v112h-144a8 8 0 0 0 0 16h144v8z"/><path d="m304 328h8a8 8 0 0 0 0-16h-8a8 8 0 0 0 0 16z"/><path d="m336 360h24a8 8 0 0 0 8-8v-32a8 8 0 0 0 -8-8h-24a8 8 0 0 0 -8 8v32a8 8 0 0 0 8 8zm8-32h8v16h-8z"/><path d="m208 416h-8a8 8 0 0 0 0 16h8a8 8 0 0 0 0-16z"/><path d="m176 384h-24a8 8 0 0 0 -8 8v32a8 8 0 0 0 8 8h24a8 8 0 0 0 8-8v-32a8 8 0 0 0 -8-8zm-8 32h-8v-16h8z"/><path d="m176 336h-24a8 8 0 0 0 -8 8v24a8 8 0 0 0 8 8h24a8 8 0 0 0 8-8v-24a8 8 0 0 0 -8-8zm-8 24h-8v-8h8z"/><path d="m336 408h24a8 8 0 0 0 8-8v-24a8 8 0 0 0 -8-8h-24a8 8 0 0 0 -8 8v24a8 8 0 0 0 8 8zm8-24h8v8h-8z"/></g></g></svg>