<svg height="512pt" viewBox="-71 0 512 512" width="512pt" xmlns="http://www.w3.org/2000/svg"><path d="m284.523438 7.5h-264.167969c-7.097657 0-12.855469 5.757812-12.855469 12.855469v471.289062c0 7.097657 5.757812 12.855469 12.855469 12.855469h329.289062c7.097657 0 12.855469-5.753906 12.855469-12.855469v-411.195312c0-3.589844-1.5-7.011719-4.136719-9.445313l-65.117187-60.097656c-2.378906-2.1875-5.488282-3.40625-8.722656-3.40625zm0 0" fill="#e3f6ff"/><path d="m358.363281 71.003906-65.121093-60.09375c-2.375-2.191406-5.484376-3.410156-8.71875-3.410156h-52.933594l67.0625 61.890625c3.75 3.460937 5.886718 8.335937 5.886718 13.441406v421.667969h45.105469c7.097657 0 12.855469-5.757812 12.855469-12.855469v-411.195312c0-3.589844-1.5-7.011719-4.136719-9.445313zm0 0" fill="#cee8f2"/><path d="m283.398438 464.003906h-196.796876c-24.246093 0-43.902343-19.65625-43.902343-43.902344v-262.648437c0-24.242187 19.65625-43.898437 43.902343-43.898437h196.796876c24.246093 0 43.902343 19.65625 43.902343 43.898437v262.648437c0 24.246094-19.65625 43.902344-43.902343 43.902344zm0 0" fill="#ffcc3b"/><path d="m283.398438 464.003906h-196.796876c-24.246093 0-43.902343-19.65625-43.902343-43.902344v-262.648437c0-24.242187 19.65625-43.898437 43.902343-43.898437h196.796876c24.246093 0 43.902343 19.65625 43.902343 43.898437v262.648437c0 24.246094-19.65625 43.902344-43.902343 43.902344zm0 0" fill="#ffcc3b"/><path d="m283.398438 113.554688h-14.171876v350.449218h14.171876c24.246093 0 43.902343-19.65625 43.902343-43.902344v-262.648437c0-24.242187-19.65625-43.898437-43.902343-43.898437zm0 0" fill="#efb525"/><path d="m159.886719 232.246094h50.234375c11.070312 0 20.046875-8.972656 20.046875-20.046875v-98.644531h-90.328125v98.644531c0 11.070312 8.972656 20.046875 20.046875 20.046875zm0 0" fill="#ffd876"/><path d="m210.121094 345.3125h-50.234375c-11.074219 0-20.046875 8.972656-20.046875 20.046875v98.644531h90.328125v-98.644531c0-11.074219-8.976563-20.046875-20.046875-20.046875zm0 0" fill="#ffd876"/><path d="m363.449219 65.488281-65.121094-60.09375c-3.769531-3.480469-8.671875-5.394531-13.804687-5.394531h-264.167969c-11.222657 0-20.355469 9.132812-20.355469 20.355469v471.289062c0 11.222657 9.132812 20.355469 20.355469 20.355469h329.289062c11.222657 0 20.355469-9.132812 20.355469-20.355469v-411.195312c0-5.664063-2.386719-11.117188-6.550781-14.960938zm-8.449219 426.15625c0 2.953125-2.402344 5.355469-5.355469 5.355469h-329.289062c-2.953125 0-5.355469-2.402344-5.355469-5.355469v-471.289062c0-2.953125 2.402344-5.355469 5.355469-5.355469h264.167969c1.351562 0 2.640624.503906 3.632812 1.421875l65.121094 60.09375c1.09375 1.007813 1.722656 2.445313 1.722656 3.933594zm0 0"/><path d="m283.398438 106.054688h-196.796876c-28.34375 0-51.402343 23.058593-51.402343 51.398437v262.648437c0 28.34375 23.0625 51.402344 51.402343 51.402344h196.796876c28.34375 0 51.402343-23.0625 51.402343-51.402344v-262.648437c0-28.339844-23.058593-51.398437-51.402343-51.398437zm-233.199219 51.398437c0-20.070313 16.328125-36.398437 36.402343-36.398437h45.734376v27.46875c0 4.140624 3.355468 7.5 7.5 7.5 4.140624 0 7.5-3.359376 7.5-7.5v-27.46875h75.328124v91.144531c0 1.257812-.1875 2.472656-.53125 3.617187-.066406.179688-.128906.363282-.179687.550782-1.722656 4.875-6.378906 8.378906-11.835937 8.378906h-50.234376c-5.460937 0-10.113281-3.503906-11.835937-8.378906-.054687-.1875-.113281-.371094-.179687-.550782-.347657-1.144531-.53125-2.359375-.53125-3.617187v-28.652344c0-4.140625-3.359376-7.5-7.5-7.5-4.144532 0-7.5 3.359375-7.5 7.5v27.375h-3.441407c-28.109375 0-53.683593 16.597656-65.148437 42.28125-.503906 1.125-1.640625 1.855469-2.894532 1.855469h-10.652343zm82.136719 299.050781h-45.734376c-20.070312 0-36.402343-16.328125-36.402343-36.402344v-97.601562h10.652343c1.253907 0 2.390626.726562 2.894532 1.855469 11.46875 25.683593 37.039062 42.28125 65.152344 42.28125h3.4375zm187.464843-36.402344c0 20.074219-16.328125 36.402344-36.402343 36.402344h-45.734376v-30.160156c0-4.144531-3.355468-7.5-7.5-7.5-4.140624 0-7.5 3.355469-7.5 7.5v30.160156h-75.328124v-91.148437c0-1.253907.1875-2.46875.53125-3.613281.066406-.179688.128906-.367188.183593-.554688 1.722657-4.875 6.375-8.378906 11.832031-8.378906h50.234376c5.457031 0 10.113281 3.503906 11.835937 8.378906.054687.1875.113281.375.183594.554688.34375 1.144531.527343 2.359374.527343 3.613281v25.964843c0 4.140626 3.359376 7.5 7.5 7.5 4.144532 0 7.5-3.359374 7.5-7.5v-24.683593h3.441407c28.109375 0 53.683593-16.597657 65.148437-42.28125.503906-1.128907 1.640625-1.855469 2.894532-1.855469h10.652343zm0-112.601562h-10.652343c-7.164063 0-13.675782 4.214844-16.589844 10.738281-9.058594 20.289063-29.253906 33.398438-51.453125 33.398438h-7.105469c-4.765625-8.257813-13.683594-13.828125-23.882812-13.828125h-50.234376c-10.195312 0-19.117187 5.570312-23.878906 13.828125h-7.105468c-22.199219 0-42.398438-13.109375-51.453126-33.398438-2.914062-6.523437-9.425781-10.738281-16.59375-10.738281h-10.652343v-37.441406h10.652343c7.164063 0 13.675782-4.214844 16.589844-10.738282 9.058594-20.289062 29.253906-33.398437 51.453125-33.398437h7.105469c4.765625 8.257813 13.683594 13.824219 23.882812 13.824219h50.234376c10.195312 0 19.117187-5.566406 23.878906-13.824219h7.105468c22.203126 0 42.398438 13.109375 51.453126 33.398437 2.914062 6.523438 9.425781 10.738282 16.59375 10.738282h10.652343zm0-52.441406h-10.652343c-1.253907 0-2.390626-.730469-2.894532-1.855469-11.464844-25.6875-37.039062-42.28125-65.148437-42.28125h-3.441407v-89.867187h45.734376c20.074218 0 36.402343 16.328124 36.402343 36.398437zm0 0"/></svg>